<svg width="808" height="586" viewBox="0 0 808 586" fill="none" xmlns="http://www.w3.org/2000/svg">
<g clip-path="url(#clip0_70_1331)">
<path d="M807.981 164.155C778.281 176.855 755.561 202.715 747.141 234.415C738.721 202.735 716.001 176.875 686.301 164.155C716.001 151.455 738.721 125.595 747.141 93.895C755.561 125.575 778.281 151.435 807.981 164.155Z" fill="black"/>
<path d="M302.12 121.495C283.54 121.495 277.82 123.395 274.02 131.015C271.4 136.255 270.68 144.115 270.68 167.695C270.68 206.995 272.58 209.615 301.64 209.615C319.02 209.615 324.5 207.235 328.08 198.175C330.46 191.975 331.18 184.835 331.18 163.875C331.18 142.915 330.7 136.955 328.32 131.255C324.98 123.635 319.28 121.495 302.12 121.495Z" fill="black"/>
<path d="M306.76 300.815H275.08V345.055H308.9C322.94 345.055 325.56 341.255 325.56 319.835C325.56 304.135 322.46 300.795 306.74 300.795L306.76 300.815Z" fill="black"/>
<path d="M157.659 358.375C156.552 357.895 152.026 357.501 144.079 357.195H108.119V388.115H141.219C159.559 388.115 164.319 385.015 164.319 373.375C164.319 363.855 162.659 360.295 157.659 358.395V358.375Z" fill="black"/>
<path d="M156.481 326.275C160.301 324.615 161.961 320.095 161.961 312.715C161.961 302.015 159.101 299.395 147.201 299.395H108.141V327.935H139.821C149.341 327.775 154.894 327.222 156.481 326.275Z" fill="black"/>
<path d="M550.68 460.855H626.26L651.78 435.235L657.42 460.855H733.78L762.1 432.535L801.8 254.815H739.66L708.32 286.155L705.1 272.795L723.68 254.395L655.74 164.175L718.66 76.815H670.36L716.92 0.89502H0L50.18 82.695L27.74 105.135V460.855H129.1C150.58 460.855 165.38 457.055 174.76 448.435C174.92 448.295 175.06 448.115 175.24 447.955C175.4 447.815 175.54 447.635 175.72 447.475C175.88 447.335 176.02 447.155 176.2 446.995C176.36 446.855 176.5 446.675 176.68 446.515C176.84 446.375 176.98 446.195 177.16 446.035C177.32 445.895 177.46 445.715 177.64 445.555C177.8 445.415 177.94 445.235 178.12 445.075C178.28 444.935 178.42 444.755 178.6 444.595C178.76 444.455 178.9 444.275 179.08 444.115C179.24 443.975 179.38 443.795 179.56 443.635C179.72 443.495 179.86 443.315 180.04 443.155C180.2 443.015 180.34 442.835 180.52 442.675C180.68 442.535 180.82 442.355 181 442.195C181.16 442.055 181.3 441.875 181.48 441.715C181.64 441.575 181.78 441.395 181.96 441.235C182.12 441.095 182.26 440.915 182.44 440.755C182.6 440.615 182.74 440.435 182.92 440.275C183.08 440.135 183.22 439.955 183.4 439.795C183.56 439.655 183.7 439.475 183.88 439.315C184.04 439.175 184.18 438.995 184.36 438.835C184.52 438.695 184.66 438.515 184.84 438.355C185 438.215 185.14 438.035 185.32 437.875C185.48 437.735 185.62 437.555 185.8 437.395C185.96 437.255 186.1 437.075 186.28 436.915C186.44 436.775 186.58 436.595 186.76 436.435C186.92 436.295 187.06 436.115 187.24 435.955C187.4 435.815 187.54 435.635 187.72 435.475C187.88 435.335 188.02 435.155 188.2 434.995C188.36 434.855 188.5 434.675 188.68 434.515C188.84 434.375 188.98 434.195 189.16 434.035C189.32 433.895 189.46 433.715 189.64 433.555C189.8 433.415 189.94 433.235 190.12 433.075C190.28 432.935 190.42 432.755 190.6 432.595C190.76 432.455 190.9 432.275 191.08 432.115C191.24 431.975 191.38 431.795 191.56 431.635C191.72 431.495 191.86 431.315 192.04 431.155C192.2 431.015 192.34 430.835 192.52 430.675C192.68 430.535 192.82 430.355 193 430.195C193.16 430.055 193.3 429.875 193.48 429.715C193.64 429.575 193.78 429.395 193.96 429.235C194.12 429.095 194.26 428.915 194.44 428.755C194.6 428.615 194.74 428.435 194.92 428.275C194.96 428.235 195 428.195 195.04 428.175V460.535H256.56L272.62 444.475L358.82 584.995L435.1 460.635H513.52L544.44 429.715M65.5 86.255H108.12V146.275H163.36V86.255H205.98V245.095H163.36V182.695H108.12V245.095H65.5V86.255ZM157.42 423.095H65.5V264.415H156.48C191.48 264.415 204.1 275.835 204.1 306.515C204.1 321.975 201.48 330.075 194.1 335.535C188.62 339.575 184.58 341.235 177.66 342.195V342.915C199.56 344.815 206.72 353.855 206.72 380.495C206.72 412.375 194.34 423.075 157.42 423.075V423.095ZM367.96 394.075V423.095H324.62V401.915C325.1 387.175 319.38 380.515 306.76 380.975H275.08V423.075H232.46V264.395H312.72C335.58 264.395 345.82 266.535 355.1 273.675C365.34 281.295 369.14 292.475 369.14 313.875C369.14 336.955 366.28 347.655 358.42 353.835C354.38 357.175 350.56 358.595 339.36 361.455V363.115C358.88 364.075 368.42 374.535 367.94 394.035L367.96 394.075ZM365.46 223.655C354.98 240.315 336.88 246.275 298.06 246.275C273.3 246.275 260.9 244.135 250.66 237.695C238.28 230.075 231.6 220.075 228.52 204.595C227.32 197.935 226.86 189.835 226.86 174.115C226.86 145.295 228.06 129.815 231.14 119.095C234.72 105.755 245.66 95.035 261.62 89.335C270.2 86.475 283.06 85.055 303.3 85.055C324.98 85.055 335.92 86.475 345.22 90.535C360.46 97.195 369.28 108.395 372.6 125.295C374.26 132.675 374.74 144.355 374.74 166.495C374.74 200.795 373.08 211.735 365.46 223.655ZM442.08 86.255H530.98V126.735H442.08C437.2 126.735 433.22 130.715 433.22 135.595C433.22 140.475 437.2 144.455 442.08 144.455H530.98V184.935H442.08C414.88 184.935 392.74 162.795 392.74 135.595C392.74 108.395 414.88 86.255 442.08 86.255ZM396.22 203.395H530.82V244.855H396.22V203.395ZM532.02 423.195H397.42V381.735H532.02V423.195ZM532.18 305.875H438.8V323.255H531.98V364.715H397.38V323.255H397.56V264.415H532.16V305.875H532.18ZM552.58 86.255H595.2V146.455H608.06L648.78 86.255H700.22L644.02 164.295L704.74 244.955H652.58L608.28 182.375H595.18V244.955H552.56V86.255H552.58ZM754.52 423.095H693.32L682.36 373.315C678.54 356.875 675.22 340.215 671.88 323.535H670.22C669.74 325.915 668.56 331.395 667.6 335.915C666.18 343.055 665.22 347.815 664.98 348.535C663.08 356.875 661.16 364.975 659.02 373.295L647.12 423.075H586.64L552.58 264.235H595.2L607.1 325.435L612.82 356.155C614.72 366.155 616.4 376.155 618.06 386.635H619.72L623.06 371.395L626.64 356.155L634.26 325.435L649.5 264.235H693.32L708.08 325.435C712.84 345.915 715.94 359.015 717.12 365.195C718.78 372.335 720.22 379.255 721.88 386.635H723.3C726.88 366.395 730.68 346.155 734.96 325.435L747.34 264.235H789.96L754.48 423.075L754.52 423.095Z" fill="black"/>
</g>
<defs>
<clipPath id="clip0_70_1331">
<rect width="807.98" height="584.42" fill="white" transform="translate(0 0.89502)"/>
</clipPath>
</defs>
</svg>
