<svg width="782" height="387" viewBox="0 0 782 387" fill="none" xmlns="http://www.w3.org/2000/svg">
<g clip-path="url(#clip0_70_1512)">
<path d="M677.36 198.075L695.94 179.675L628 89.4549L690.92 2.09486H616.04L587.72 30.4149L576.92 46.3949V2.09486H414.36C398.04 2.09486 383.26 8.79486 372.58 19.5749C372.42 19.7349 372.26 19.8949 372.1 20.0549C371.94 20.2149 371.78 20.3749 371.62 20.5349C371.46 20.6949 371.3 20.8549 371.14 21.0149C370.98 21.1749 370.82 21.3349 370.66 21.4949C370.5 21.6549 370.34 21.8149 370.18 21.9749C370.02 22.1349 369.86 22.2949 369.7 22.4549C369.54 22.6149 369.38 22.7749 369.22 22.9349C369.06 23.0949 368.9 23.2549 368.74 23.4149C368.58 23.5749 368.42 23.7349 368.26 23.8949C368.1 24.0549 367.94 24.2149 367.78 24.3749C367.62 24.5349 367.46 24.6949 367.3 24.8549C367.14 25.0149 366.98 25.1749 366.82 25.3349C366.66 25.4949 366.5 25.6549 366.34 25.8149C366.18 25.9749 366.02 26.1349 365.86 26.2949C365.7 26.4549 365.54 26.6149 365.38 26.7749C365.22 26.9349 365.06 27.0949 364.9 27.2549C364.74 27.4149 364.58 27.5749 364.42 27.7349C364.26 27.8949 364.1 28.0549 363.94 28.2149C363.78 28.3749 363.62 28.5349 363.46 28.6949C363.3 28.8549 363.14 29.0149 362.98 29.1749C362.82 29.3349 362.66 29.4949 362.5 29.6549C362.34 29.8149 362.18 29.9749 362.02 30.1349C361.86 30.2949 361.7 30.4549 361.54 30.6149C361.38 30.7749 361.22 30.9349 361.06 31.0949C360.9 31.2549 360.74 31.4149 360.58 31.5749C360.42 31.7349 360.26 31.8949 360.1 32.0549C359.94 32.2149 359.78 32.3749 359.62 32.5349C359.46 32.6949 359.3 32.8549 359.14 33.0149C358.98 33.1749 358.82 33.3349 358.66 33.4949C358.5 33.6549 358.34 33.8149 358.18 33.9749C358.02 34.1349 357.86 34.2949 357.7 34.4549C357.54 34.6149 357.38 34.7749 357.22 34.9349C357.06 35.0949 356.9 35.2549 356.74 35.4149C356.58 35.5749 356.42 35.7349 356.26 35.8949C356.1 36.0549 355.94 36.2149 355.78 36.3749C355.62 36.5349 355.46 36.6949 355.3 36.8549C355.14 37.0149 354.98 37.1749 354.82 37.3349C354.66 37.4949 354.5 37.6549 354.34 37.8149C354.18 37.9749 354.02 38.1349 353.86 38.2949C353.7 38.4549 353.54 38.6149 353.38 38.7749C353.22 38.9349 353.06 39.0949 352.9 39.2549C352.74 39.4149 352.58 39.5749 352.42 39.7349C352.26 39.8949 352.1 40.0549 351.94 40.2149C351.8 40.3549 351.66 40.4749 351.54 40.6149C346.44 25.1749 336.4 14.2749 320.94 7.49486C310.32 2.87486 298.38 1.23486 275.26 1.23486C254.28 1.23486 240.5 2.71486 230.4 6.07486C220.88 9.47486 212.8 14.5749 206.56 20.8349C206.4 20.9949 206.24 21.1549 206.08 21.3149C205.92 21.4749 205.76 21.6349 205.6 21.7949C205.44 21.9549 205.28 22.1149 205.12 22.2749C204.96 22.4349 204.8 22.5949 204.64 22.7549C204.48 22.9149 204.32 23.0749 204.16 23.2349C204 23.3949 203.84 23.5549 203.68 23.7149C203.52 23.8749 203.36 24.0349 203.2 24.1949C203.04 24.3549 202.88 24.5149 202.72 24.6749C202.56 24.8349 202.4 24.9949 202.24 25.1549C202.08 25.3149 201.92 25.4749 201.76 25.6349C201.6 25.7949 201.44 25.9549 201.28 26.1149C201.12 26.2749 200.96 26.4349 200.8 26.5949C200.64 26.7549 200.48 26.9149 200.32 27.0749C200.16 27.2349 200 27.3949 199.84 27.5549C199.68 27.7149 199.52 27.8749 199.36 28.0349C199.2 28.1949 199.04 28.3549 198.88 28.5149C198.72 28.6749 198.56 28.8349 198.4 28.9949C198.24 29.1549 198.08 29.3149 197.92 29.4749C197.76 29.6349 197.6 29.7949 197.44 29.9549C197.28 30.1149 197.12 30.2749 196.96 30.4349C196.8 30.5949 196.64 30.7549 196.48 30.9149C196.32 31.0749 196.16 31.2349 196 31.3949C195.84 31.5549 195.68 31.7149 195.52 31.8749C195.36 32.0349 195.2 32.1949 195.04 32.3549C194.88 32.5149 194.72 32.6749 194.56 32.8349C194.4 32.9949 194.24 33.1549 194.08 33.3149C193.92 33.4749 193.76 33.6349 193.6 33.7949C193.44 33.9549 193.28 34.1149 193.12 34.2749C192.96 34.4349 192.8 34.5949 192.64 34.7549C192.48 34.9149 192.32 35.0749 192.16 35.2349C192 35.3949 191.84 35.5549 191.68 35.7149C191.52 35.8749 191.36 36.0349 191.2 36.1949C191.04 36.3549 190.88 36.5149 190.72 36.6749C190.56 36.8349 190.4 36.9949 190.24 37.1549C190.08 37.3149 189.92 37.4749 189.76 37.6349C189.6 37.7949 189.44 37.9549 189.28 38.1149C189.12 38.2749 188.96 38.4349 188.8 38.5949C188.64 38.7549 188.48 38.9149 188.32 39.0749C188.16 39.2349 188 39.3949 187.84 39.5549C187.68 39.7149 187.52 39.8749 187.36 40.0349C187.26 40.1149 187.16 40.1949 187.08 40.2949V2.09486H125.56L97.24 30.4149V62.0949H89.2V2.09486H28.32L0 30.4149V386.135H101.36C122.84 386.135 137.64 382.335 147.02 373.715C147.18 373.575 147.32 373.395 147.5 373.235C147.66 373.095 147.8 372.915 147.98 372.755C148.14 372.615 148.28 372.435 148.46 372.275C148.62 372.135 148.76 371.955 148.94 371.795C149.1 371.655 149.24 371.475 149.42 371.315C149.58 371.175 149.72 370.995 149.9 370.835C150.06 370.695 150.2 370.515 150.38 370.355C150.54 370.215 150.68 370.035 150.86 369.875C151.02 369.735 151.16 369.555 151.34 369.395C151.5 369.255 151.64 369.075 151.82 368.915C151.98 368.775 152.12 368.595 152.3 368.435C152.46 368.295 152.6 368.115 152.78 367.955C152.94 367.815 153.08 367.635 153.26 367.475C153.42 367.335 153.56 367.155 153.74 366.995C153.9 366.855 154.04 366.675 154.22 366.515C154.38 366.375 154.52 366.195 154.7 366.035C154.86 365.895 155 365.715 155.18 365.555C155.34 365.415 155.48 365.235 155.66 365.075C155.82 364.935 155.96 364.755 156.14 364.595C156.3 364.455 156.44 364.275 156.62 364.115C156.78 363.975 156.92 363.795 157.1 363.635C157.26 363.495 157.4 363.315 157.58 363.155C157.74 363.015 157.88 362.835 158.06 362.675C158.22 362.535 158.36 362.355 158.54 362.195C158.7 362.055 158.84 361.875 159.02 361.715C159.18 361.575 159.32 361.395 159.5 361.235C159.66 361.095 159.8 360.915 159.98 360.755C160.14 360.615 160.28 360.435 160.46 360.275C160.62 360.135 160.76 359.955 160.94 359.795C161.1 359.655 161.24 359.475 161.42 359.315C161.58 359.175 161.72 358.995 161.9 358.835C162.06 358.695 162.2 358.515 162.38 358.355C162.54 358.215 162.68 358.035 162.86 357.875C163.02 357.735 163.16 357.555 163.34 357.395C163.5 357.255 163.64 357.075 163.82 356.915C163.98 356.775 164.12 356.595 164.3 356.435C164.46 356.295 164.6 356.115 164.78 355.955C164.94 355.815 165.08 355.635 165.26 355.475C165.42 355.335 165.56 355.155 165.74 354.995C165.9 354.855 166.04 354.675 166.22 354.515C166.38 354.375 166.52 354.195 166.7 354.035C166.86 353.895 167 353.715 167.18 353.555C167.22 353.515 167.26 353.475 167.3 353.455V385.815H228.82L259.46 355.175V385.815H321.68L332.26 374.955V385.915H485.74L516.66 354.995L523.26 385.815H598.84L624.36 360.195L630 385.815H706.36L734.68 357.495L774.38 179.775H712.24L680.9 211.115L677.68 197.755L677.36 198.075ZM263.54 88.4949C265.22 92.5149 265.66 96.5749 265.66 117.475C265.66 120.375 265.66 122.955 265.62 125.315C260.8 125.095 256.22 124.555 255.12 123.055C252.38 119.335 252.38 104.095 252.38 92.9749C252.38 89.9349 252.38 87.1949 252.42 84.6749C262.02 85.1349 262.76 86.7549 263.52 88.4949H263.54Z" fill="#11192C"/>
<path d="M567.46 107.655H580.56L624.86 170.215H677.02L616.28 89.5552L672.48 11.5352H621.04L580.32 71.7152H567.46V11.5352H524.84V170.215H567.46V107.655Z" fill="white"/>
<path d="M414.34 110.215H503.24V69.7352H414.34C409.46 69.7352 405.48 65.7552 405.48 60.8752C405.48 55.9952 409.46 52.0152 414.34 52.0152H503.24V11.5352H414.34C387.14 11.5352 365 33.6752 365 60.8752C365 88.0752 387.14 110.215 414.34 110.215Z" fill="white"/>
<path d="M503.08 128.675H368.48V170.135H503.08V128.675Z" fill="white"/>
<path d="M719.643 189.515L707.263 250.715C702.983 271.435 699.163 291.675 695.603 311.915H694.183C692.523 304.535 691.083 297.635 689.423 290.475C688.223 284.275 685.143 271.195 680.383 250.715L665.623 189.515H621.803L606.563 250.715L598.943 281.435L595.363 296.675L592.023 311.915H590.363C588.703 301.435 587.023 291.435 585.123 281.435L579.403 250.715L567.503 189.515H524.883L558.943 348.355H619.423L631.323 298.575C633.463 290.235 635.363 282.135 637.283 273.815C637.523 273.095 638.483 268.335 639.903 261.195C640.863 256.675 642.043 251.195 642.523 248.815H644.183C647.523 265.495 650.843 282.155 654.663 298.595L665.623 348.375H726.823L762.303 189.535H719.683L719.643 189.515Z" fill="white"/>
<path d="M369.86 193.275V231.135V248.535H369.66V289.975H504.26V248.535H411.08V231.135H504.44V189.695H369.86V193.275Z" fill="white"/>
<path d="M504.303 307.015H369.703V348.475H504.303V307.015Z" fill="white"/>
<path d="M317.481 15.815C308.201 11.775 297.241 10.335 275.561 10.335C255.321 10.335 242.461 11.755 233.881 14.615C217.921 20.335 206.981 31.055 203.401 44.375C200.301 55.095 199.121 70.575 199.121 99.395C199.121 115.115 199.601 123.215 200.781 129.875C203.881 145.355 210.541 155.355 222.921 162.975C233.161 169.395 245.541 171.555 270.321 171.555C309.141 171.555 327.241 165.595 337.721 148.935C345.341 137.035 347.001 126.075 347.001 91.775C347.001 69.635 346.521 57.955 344.861 50.575C341.521 33.675 332.721 22.475 317.481 15.815ZM300.341 123.455C296.761 132.495 291.301 134.895 273.901 134.895C244.841 134.895 242.941 132.275 242.941 92.975C242.941 69.395 243.661 61.535 246.281 56.295C250.101 48.675 255.801 46.775 274.381 46.775C291.521 46.775 297.241 48.915 300.581 56.535C302.961 62.255 303.441 67.255 303.441 89.155C303.441 111.055 302.721 117.255 300.341 123.455Z" fill="white"/>
<path d="M80.4017 107.975H135.642V170.375H178.262V11.5352H135.642V71.5352H80.4017V11.5352H37.7617V170.375H80.4017V107.975Z" fill="white"/>
<path d="M330.703 279.135C338.563 272.955 341.423 262.235 341.423 239.175C341.423 217.775 337.603 206.575 327.363 198.975C318.083 191.835 307.843 189.695 284.983 189.695H204.723V348.375H247.343V306.275H279.023C291.643 305.795 297.363 312.455 296.883 327.215V348.395H340.223V319.375C340.703 299.875 331.183 289.395 311.643 288.455V286.795C322.843 283.935 326.643 282.515 330.703 279.175V279.135ZM281.163 270.335H247.343V226.095H279.023C294.743 226.095 297.843 229.435 297.843 245.135C297.843 266.555 295.223 270.355 281.163 270.355V270.335Z" fill="white"/>
<path d="M149.942 268.195V267.475C156.842 266.515 160.902 264.855 166.382 260.815C173.762 255.335 176.382 247.255 176.382 231.795C176.382 201.115 163.762 189.695 128.762 189.695H37.7617V348.375H129.682C166.602 348.375 178.982 337.675 178.982 305.795C178.982 279.155 171.842 270.115 149.922 268.215L149.942 268.195ZM80.4017 224.655H119.462C131.362 224.655 134.222 227.275 134.222 237.975C134.222 245.355 132.562 249.875 128.742 251.535C127.155 252.481 121.602 253.035 112.082 253.195H80.4017V224.655ZM113.502 313.395H80.4017V282.475H116.362C124.295 282.795 128.822 283.188 129.942 283.655C134.942 285.555 136.602 289.135 136.602 298.635C136.602 310.295 131.842 313.375 113.502 313.375V313.395Z" fill="white"/>
<path d="M781.16 89.3953C751.46 102.095 728.74 127.955 720.32 159.655C711.9 127.975 689.18 102.115 659.48 89.3953C689.18 76.6953 711.9 50.8353 720.32 19.1353C728.74 50.8153 751.46 76.6753 781.16 89.3953Z" fill="#44CF6C"/>
<path d="M741.16 89.3953C711.46 102.095 728.74 127.955 720.32 159.655C711.9 127.975 689.18 102.115 659.48 89.3953C689.18 76.6953 711.9 50.8353 720.32 19.1353C728.74 50.8153 711.46 76.6753 741.16 89.3953Z" fill="#11192C"/>
<path d="M757.16 89.3953C727.46 102.095 728.74 127.955 720.32 159.655C711.9 127.975 713.18 102.115 683.48 89.3953C713.18 76.6953 711.9 50.8353 720.32 19.1353C728.74 50.8153 727.46 76.6753 757.16 89.3953Z" fill="#007AFF"/>
</g>
<defs>
<clipPath id="clip0_70_1512">
<rect width="781.16" height="385.34" fill="white" transform="translate(0 0.89502)"/>
</clipPath>
</defs>
</svg>
