<svg width="782" height="387" viewBox="0 0 782 387" fill="none" xmlns="http://www.w3.org/2000/svg">
<g clip-path="url(#clip0_70_1391)">
<path d="M279.02 226.075H247.34V270.315H281.16C295.22 270.315 297.84 266.515 297.84 245.095C297.84 229.395 294.74 226.055 279.02 226.055V226.075Z" fill="black"/>
<path d="M129.921 283.655C128.814 283.175 124.288 282.782 116.341 282.475H80.3809V313.395H113.481C131.821 313.395 136.581 310.295 136.581 298.635C136.581 289.115 134.921 285.555 129.921 283.655Z" fill="black"/>
<path d="M274.379 46.7749C255.799 46.7749 250.079 48.6749 246.279 56.2949C243.659 61.5349 242.939 69.3949 242.939 92.9749C242.939 132.275 244.839 134.895 273.899 134.895C291.279 134.895 296.759 132.515 300.339 123.455C302.719 117.255 303.439 110.115 303.439 89.1549C303.439 68.1949 302.959 62.2349 300.579 56.5349C297.239 48.9149 291.539 46.7749 274.379 46.7749ZM265.619 125.315C260.799 125.095 256.219 124.555 255.119 123.055C252.379 119.335 252.379 104.095 252.379 92.9749C252.379 89.9349 252.379 87.1949 252.419 84.6749C262.019 85.1349 262.759 86.7549 263.519 88.4949C265.199 92.5149 265.639 96.5749 265.639 117.475C265.639 120.375 265.639 122.955 265.599 125.315H265.619Z" fill="black"/>
<path d="M128.74 251.535C132.56 249.875 134.22 245.355 134.22 237.975C134.22 227.275 131.36 224.655 119.46 224.655H80.4004V253.195H112.08C121.6 253.035 127.154 252.481 128.74 251.535Z" fill="black"/>
<path d="M677.36 198.075L695.94 179.675L628 89.4549L690.92 2.09486H616.04L587.72 30.4149L576.92 46.3949V2.09486H414.36C398.04 2.09486 383.26 8.79486 372.58 19.5749C372.42 19.7349 372.26 19.8949 372.1 20.0549C371.94 20.2149 371.78 20.3749 371.62 20.5349C371.46 20.6949 371.3 20.8549 371.14 21.0149C370.98 21.1749 370.82 21.3349 370.66 21.4949C370.5 21.6549 370.34 21.8149 370.18 21.9749C370.02 22.1349 369.86 22.2949 369.7 22.4549C369.54 22.6149 369.38 22.7749 369.22 22.9349C369.06 23.0949 368.9 23.2549 368.76 23.4149C368.6 23.5749 368.44 23.7349 368.28 23.8949C368.12 24.0549 367.96 24.2149 367.8 24.3749C367.64 24.5349 367.48 24.6949 367.32 24.8549C367.16 25.0149 367 25.1749 366.84 25.3349C366.68 25.4949 366.52 25.6549 366.38 25.8149C366.22 25.9749 366.06 26.1349 365.9 26.2949C365.74 26.4549 365.58 26.6149 365.42 26.7749C365.26 26.9349 365.1 27.0949 364.94 27.2549C364.78 27.4149 364.62 27.5749 364.46 27.7349C364.3 27.8949 364.14 28.0549 363.98 28.2149C363.82 28.3749 363.66 28.5349 363.5 28.6949C363.34 28.8549 363.18 29.0149 363.02 29.1749C362.86 29.3349 362.7 29.4949 362.54 29.6549C362.38 29.8149 362.22 29.9749 362.06 30.1349C361.9 30.2949 361.74 30.4549 361.58 30.6149C361.42 30.7749 361.26 30.9349 361.1 31.0949C360.94 31.2549 360.78 31.4149 360.62 31.5749C360.46 31.7349 360.3 31.8949 360.14 32.0549C359.98 32.2149 359.82 32.3749 359.66 32.5349C359.5 32.6949 359.34 32.8549 359.18 33.0149C359.02 33.1749 358.86 33.3349 358.7 33.4949C358.54 33.6549 358.38 33.8149 358.24 33.9749C358.08 34.1349 357.92 34.2949 357.76 34.4549C357.6 34.6149 357.44 34.7749 357.28 34.9349C357.12 35.0949 356.96 35.2549 356.8 35.4149C356.64 35.5749 356.48 35.7349 356.32 35.8949C356.16 36.0549 356 36.2149 355.86 36.3749C355.7 36.5349 355.54 36.6949 355.38 36.8549C355.22 37.0149 355.06 37.1749 354.9 37.3349C354.74 37.4949 354.58 37.6549 354.42 37.8149C354.26 37.9749 354.1 38.1349 353.94 38.2949C353.78 38.4549 353.62 38.6149 353.46 38.7749C353.3 38.9349 353.14 39.0949 352.98 39.2549C352.82 39.4149 352.66 39.5749 352.5 39.7349C352.34 39.8949 352.18 40.0549 352.02 40.2149C351.88 40.3549 351.74 40.4749 351.62 40.6149C346.52 25.1749 336.48 14.2749 321.02 7.49486C310.4 2.87486 298.46 1.23486 275.34 1.23486C254.36 1.23486 240.58 2.71486 230.48 6.07486C220.96 9.47486 212.88 14.5749 206.64 20.8349C206.48 20.9949 206.32 21.1549 206.16 21.3149C206 21.4749 205.84 21.6349 205.68 21.7949C205.52 21.9549 205.36 22.1149 205.2 22.2749C205.04 22.4349 204.88 22.5949 204.72 22.7549C204.56 22.9149 204.4 23.0749 204.24 23.2349C204.08 23.3949 203.92 23.5549 203.76 23.7149C203.6 23.8749 203.44 24.0349 203.28 24.1949C203.12 24.3549 202.96 24.5149 202.8 24.6749C202.64 24.8349 202.48 24.9949 202.32 25.1549C202.16 25.3149 202 25.4749 201.84 25.6349C201.68 25.7949 201.52 25.9549 201.36 26.1149C201.2 26.2749 201.04 26.4349 200.88 26.5949C200.72 26.7549 200.56 26.9149 200.4 27.0749C200.24 27.2349 200.08 27.3949 199.92 27.5549C199.76 27.7149 199.6 27.8749 199.44 28.0349C199.28 28.1949 199.12 28.3549 198.96 28.5149C198.8 28.6749 198.64 28.8349 198.48 28.9949C198.32 29.1549 198.16 29.3149 198 29.4749C197.84 29.6349 197.68 29.7949 197.52 29.9549C197.36 30.1149 197.2 30.2749 197.04 30.4349C196.88 30.5949 196.72 30.7549 196.56 30.9149C196.4 31.0749 196.24 31.2349 196.08 31.3949C195.92 31.5549 195.76 31.7149 195.6 31.8749C195.44 32.0349 195.28 32.1949 195.12 32.3549C194.96 32.5149 194.8 32.6749 194.64 32.8349C194.48 32.9949 194.32 33.1549 194.16 33.3149C194 33.4749 193.84 33.6349 193.68 33.7949C193.52 33.9549 193.36 34.1149 193.2 34.2749C193.04 34.4349 192.88 34.5949 192.72 34.7549C192.56 34.9149 192.4 35.0749 192.24 35.2349C192.08 35.3949 191.92 35.5549 191.76 35.7149C191.6 35.8749 191.44 36.0349 191.28 36.1949C191.12 36.3549 190.96 36.5149 190.8 36.6749C190.64 36.8349 190.48 36.9949 190.32 37.1549C190.16 37.3149 190 37.4749 189.84 37.6349C189.68 37.7949 189.52 37.9549 189.36 38.1149C189.2 38.2749 189.04 38.4349 188.88 38.5949C188.72 38.7549 188.56 38.9149 188.4 39.0749C188.24 39.2349 188.08 39.3949 187.92 39.5549C187.76 39.7149 187.6 39.8749 187.44 40.0349C187.34 40.1149 187.24 40.2149 187.16 40.2949V2.09486H125.64L97.32 30.4149V62.0949H89.28V2.09486H28.32L0 30.4149V386.135H101.36C122.84 386.135 137.64 382.335 147.02 373.715C147.18 373.575 147.32 373.395 147.5 373.235C147.66 373.095 147.8 372.915 147.98 372.755C148.14 372.615 148.28 372.435 148.46 372.275C148.62 372.135 148.76 371.955 148.94 371.795C149.1 371.655 149.24 371.475 149.42 371.315C149.58 371.175 149.72 370.995 149.9 370.835C150.06 370.695 150.2 370.515 150.38 370.355C150.54 370.215 150.68 370.035 150.86 369.875C151.02 369.735 151.16 369.555 151.34 369.395C151.5 369.255 151.64 369.075 151.82 368.915C151.98 368.775 152.12 368.595 152.3 368.435C152.46 368.295 152.6 368.115 152.78 367.955C152.94 367.815 153.08 367.635 153.26 367.475C153.42 367.335 153.56 367.155 153.74 366.995C153.9 366.855 154.04 366.675 154.22 366.515C154.38 366.375 154.52 366.195 154.7 366.035C154.86 365.895 155 365.715 155.18 365.555C155.34 365.415 155.48 365.235 155.66 365.075C155.82 364.935 155.96 364.755 156.14 364.595C156.3 364.455 156.44 364.275 156.62 364.115C156.78 363.975 156.92 363.795 157.1 363.635C157.26 363.495 157.4 363.315 157.58 363.155C157.74 363.015 157.88 362.835 158.06 362.675C158.22 362.535 158.36 362.355 158.54 362.195C158.7 362.055 158.84 361.875 159.02 361.715C159.18 361.575 159.32 361.395 159.48 361.235C159.64 361.095 159.78 360.915 159.96 360.755C160.12 360.615 160.26 360.435 160.44 360.275C160.6 360.135 160.74 359.955 160.92 359.795C161.08 359.655 161.22 359.475 161.4 359.315C161.56 359.175 161.7 358.995 161.86 358.835C162.02 358.695 162.16 358.515 162.34 358.355C162.5 358.215 162.64 358.035 162.82 357.875C162.98 357.735 163.12 357.555 163.3 357.395C163.46 357.255 163.6 357.075 163.78 356.915C163.94 356.775 164.08 356.595 164.26 356.435C164.42 356.295 164.56 356.115 164.74 355.955C164.9 355.815 165.04 355.635 165.22 355.475C165.38 355.335 165.52 355.155 165.7 354.995C165.86 354.855 166 354.675 166.18 354.515C166.34 354.375 166.48 354.195 166.66 354.035C166.82 353.895 166.96 353.715 167.14 353.555C167.18 353.515 167.22 353.475 167.26 353.455V385.815H228.76L259.4 355.175V385.815H321.62L332.2 374.955V385.915H485.68L516.6 354.995L523.2 385.815H598.78L624.3 360.195L629.94 385.815H706.3L734.62 357.495L774.32 179.775H712.18L680.84 211.115L677.62 197.755L677.36 198.075ZM37.76 11.5349H80.38V71.5549H135.62V11.5349H178.24V170.375H135.62V107.975H80.38V170.375H37.76V11.5349ZM129.68 348.355H37.76V189.675H128.74C163.74 189.675 176.36 201.095 176.36 231.775C176.36 247.235 173.74 255.335 166.36 260.795C160.88 264.835 156.84 266.495 149.92 267.455V268.175C171.82 270.075 178.98 279.115 178.98 305.755C178.98 337.635 166.6 348.335 129.68 348.335V348.355ZM340.22 319.335V348.355H296.88V327.175C297.36 312.435 291.64 305.775 279.02 306.235H247.34V348.335H204.72V189.655H284.98C307.84 189.655 318.08 191.795 327.36 198.935C337.6 206.555 341.4 217.735 341.4 239.135C341.4 262.215 338.54 272.915 330.68 279.095C326.64 282.435 322.82 283.855 311.62 286.715V288.375C331.14 289.335 340.68 299.795 340.2 319.295L340.22 319.335ZM337.72 148.935C327.24 165.595 309.14 171.555 270.32 171.555C245.56 171.555 233.18 169.415 222.92 162.975C210.54 155.355 203.86 145.355 200.78 129.875C199.58 123.215 199.12 115.115 199.12 99.3949C199.12 70.5749 200.32 55.0949 203.4 44.3749C206.98 31.0349 217.92 20.3149 233.88 14.6149C242.46 11.7549 255.32 10.3349 275.56 10.3349C297.24 10.3349 308.18 11.7549 317.48 15.8149C332.72 22.4749 341.54 33.6749 344.86 50.5749C346.52 57.9549 347 69.6349 347 91.7749C347 126.075 345.34 137.015 337.72 148.935ZM414.34 11.5349H503.24V52.0149H414.34C409.46 52.0149 405.48 55.9949 405.48 60.8749C405.48 65.7549 409.46 69.7349 414.34 69.7349H503.24V110.215H414.34C387.14 110.215 365 88.0749 365 60.8749C365 33.6749 387.14 11.5349 414.34 11.5349ZM368.48 128.675H503.08V170.135H368.48V128.675ZM504.3 348.455H369.7V306.995H504.3V348.455ZM504.44 231.135H411.06V248.515H504.24V289.975H369.64V248.515H369.82V189.675H504.42V231.135H504.44ZM524.84 11.5349H567.46V71.7349H580.32L621.04 11.5349H672.48L616.28 89.5749L677 170.235H624.84L580.54 107.655H567.44V170.235H524.82V11.5349H524.84ZM726.78 348.355H665.58L654.62 298.575C650.8 282.135 647.48 265.475 644.14 248.795H642.48C642 251.175 640.82 256.655 639.86 261.175C638.44 268.315 637.48 273.075 637.24 273.795C635.34 282.135 633.42 290.235 631.28 298.555L619.38 348.335H558.9L524.84 189.495H567.46L579.36 250.695L585.08 281.415C586.98 291.415 588.66 301.415 590.32 311.895H591.98L595.32 296.655L598.9 281.415L606.52 250.695L621.76 189.495H665.58L680.34 250.695C685.1 271.175 688.2 284.275 689.38 290.455C691.04 297.595 692.48 304.515 694.14 311.895H695.56C699.14 291.655 702.94 271.415 707.22 250.695L719.6 189.495H762.22L726.74 348.335L726.78 348.355Z" fill="black"/>
<path d="M781.16 89.3953C751.46 102.095 728.74 127.955 720.32 159.655C711.9 127.975 689.18 102.115 659.48 89.3953C689.18 76.6953 711.9 50.8353 720.32 19.1353C728.74 50.8153 751.46 76.6753 781.16 89.3953Z" fill="black"/>
</g>
<defs>
<clipPath id="clip0_70_1391">
<rect width="781.16" height="385.34" fill="white" transform="translate(0 0.89502)"/>
</clipPath>
</defs>
</svg>
