<svg width="808" height="586" viewBox="0 0 808 586" fill="none" xmlns="http://www.w3.org/2000/svg">
<g clip-path="url(#clip0_70_1529)">
<path d="M705.08 272.795L723.66 254.395L655.72 164.175L718.64 76.815H670.34L716.92 0.89502H0L50.18 82.695L27.74 105.135V460.855H129.1C150.58 460.855 165.38 457.055 174.76 448.435C174.92 448.295 175.06 448.115 175.24 447.955C175.4 447.815 175.54 447.635 175.72 447.475C175.88 447.335 176.02 447.155 176.2 446.995C176.36 446.855 176.5 446.675 176.68 446.515C176.84 446.375 176.98 446.195 177.16 446.035C177.32 445.895 177.46 445.715 177.64 445.555C177.8 445.415 177.94 445.235 178.12 445.075C178.28 444.935 178.42 444.755 178.6 444.595C178.76 444.455 178.9 444.275 179.08 444.115C179.24 443.975 179.38 443.795 179.56 443.635C179.72 443.495 179.86 443.315 180.04 443.155C180.2 443.015 180.34 442.835 180.52 442.675C180.68 442.535 180.82 442.355 181 442.195C181.16 442.055 181.3 441.875 181.48 441.715C181.64 441.575 181.78 441.395 181.96 441.235C182.12 441.095 182.26 440.915 182.44 440.755C182.6 440.615 182.74 440.435 182.92 440.275C183.08 440.135 183.22 439.955 183.4 439.795C183.56 439.655 183.7 439.475 183.88 439.315C184.04 439.175 184.18 438.995 184.36 438.835C184.52 438.695 184.66 438.515 184.84 438.355C185 438.215 185.14 438.035 185.32 437.875C185.48 437.735 185.62 437.555 185.8 437.395C185.96 437.255 186.1 437.075 186.28 436.915C186.44 436.775 186.58 436.595 186.76 436.435C186.92 436.295 187.06 436.115 187.24 435.955C187.4 435.815 187.54 435.635 187.72 435.475C187.88 435.335 188.02 435.155 188.2 434.995C188.36 434.855 188.5 434.675 188.68 434.515C188.84 434.375 188.98 434.195 189.16 434.035C189.32 433.895 189.46 433.715 189.64 433.555C189.8 433.415 189.94 433.235 190.12 433.075C190.28 432.935 190.42 432.755 190.6 432.595C190.76 432.455 190.9 432.275 191.08 432.115C191.24 431.975 191.38 431.795 191.56 431.635C191.72 431.495 191.86 431.315 192.04 431.155C192.2 431.015 192.34 430.835 192.52 430.675C192.68 430.535 192.82 430.355 193 430.195C193.16 430.055 193.3 429.875 193.48 429.715C193.64 429.575 193.78 429.395 193.96 429.235C194.12 429.095 194.26 428.915 194.44 428.755C194.6 428.615 194.74 428.435 194.92 428.275C194.96 428.235 195 428.195 195.04 428.175V460.535H256.56L272.62 444.475L358.82 584.995L435.1 460.635H513.52L544.44 429.715L551.04 460.535H626.62L652.14 434.915L657.78 460.535H734.14L762.46 432.215L802.16 254.495H740.02L708.68 285.835L705.46 272.475L705.08 272.795Z" fill="#11192C"/>
<path d="M595.198 182.375H608.298L652.598 244.955H704.738L644.018 164.295L700.218 86.2554H648.778L608.058 146.455H595.198V86.2554H552.578V244.955H595.198V182.375Z" fill="white"/>
<path d="M442.078 184.955H530.978V144.475H442.078C437.198 144.475 433.218 140.495 433.218 135.615C433.218 130.735 437.198 126.755 442.078 126.755H530.978V86.2754H442.078C414.878 86.2754 392.738 108.415 392.738 135.615C392.738 162.815 414.878 184.955 442.078 184.955Z" fill="white"/>
<path d="M530.819 203.395H396.219V244.855H530.819V203.395Z" fill="white"/>
<path d="M747.381 264.255L735.001 325.455C730.721 346.175 726.901 366.415 723.341 386.655H721.921C720.261 379.275 718.821 372.375 717.161 365.215C715.961 359.015 712.881 345.935 708.121 325.455L693.361 264.255H649.541L634.301 325.455L626.681 356.175L623.101 371.415L619.761 386.655H618.101C616.441 376.175 614.761 366.175 612.861 356.175L607.141 325.455L595.241 264.255H552.621L586.681 423.095H647.161L659.061 373.315C661.201 364.975 663.101 356.875 665.021 348.555C665.261 347.835 666.221 343.075 667.641 335.935C668.601 331.415 669.781 325.935 670.261 323.555H671.921C675.261 340.235 678.581 356.895 682.401 373.335L693.361 423.115H754.561L790.041 264.275H747.421L747.381 264.255Z" fill="white"/>
<path d="M397.578 267.995V305.875V323.255H397.398V364.715H531.998V323.255H438.798V305.875H532.178V264.415H397.578V267.995Z" fill="white"/>
<path d="M532.041 381.735H397.441V423.195H532.041V381.735Z" fill="white"/>
<path d="M345.219 90.5352C335.939 86.4952 324.979 85.0552 303.299 85.0552C283.059 85.0552 270.199 86.4752 261.619 89.3352C245.659 95.0552 234.719 105.775 231.139 119.095C228.039 129.815 226.859 145.295 226.859 174.115C226.859 189.835 227.339 197.935 228.519 204.595C231.619 220.075 238.279 230.075 250.659 237.695C260.899 244.115 273.279 246.275 298.059 246.275C336.879 246.275 354.979 240.315 365.459 223.655C373.079 211.755 374.739 200.795 374.739 166.495C374.739 144.355 374.259 132.675 372.599 125.295C369.259 108.395 360.459 97.1952 345.219 90.5352ZM328.079 198.175C324.499 207.215 319.039 209.615 301.639 209.615C272.579 209.615 270.679 206.995 270.679 167.695C270.679 144.115 271.399 136.255 274.019 131.015C277.839 123.395 283.539 121.495 302.119 121.495C319.259 121.495 324.979 123.635 328.319 131.255C330.699 136.975 331.179 141.975 331.179 163.875C331.179 185.775 330.459 191.975 328.079 198.175Z" fill="white"/>
<path d="M108.12 182.695H163.38V245.095H206V86.2554H163.38V146.275H108.12V86.2554H65.5V245.095H108.12V182.695Z" fill="white"/>
<path d="M358.441 353.855C366.301 347.675 369.161 336.955 369.161 313.895C369.161 292.495 365.341 281.295 355.101 273.695C345.821 266.555 335.581 264.415 312.721 264.415H232.461V423.095H275.081V380.995H306.761C319.381 380.515 325.101 387.175 324.621 401.935V423.115H367.961V394.095C368.441 374.595 358.921 364.115 339.381 363.175V361.515C350.581 358.655 354.381 357.235 358.441 353.895V353.855ZM308.901 345.055H275.081V300.815H306.761C322.481 300.815 325.581 304.155 325.581 319.855C325.581 341.275 322.961 345.075 308.901 345.075V345.055Z" fill="white"/>
<path d="M177.66 342.915V342.195C184.56 341.235 188.62 339.575 194.1 335.535C201.48 330.055 204.1 321.975 204.1 306.515C204.1 275.835 191.48 264.415 156.48 264.415H65.5V423.095H157.42C194.34 423.095 206.72 412.395 206.72 380.515C206.72 353.875 199.58 344.835 177.66 342.935V342.915ZM108.12 299.395H147.18C159.08 299.395 161.94 302.015 161.94 312.715C161.94 320.095 160.28 324.615 156.46 326.275C154.873 327.222 149.32 327.775 139.8 327.935H108.12V299.395ZM141.24 388.115H108.14V357.195H144.1C152.033 357.515 156.56 357.908 157.68 358.375C162.68 360.275 164.34 363.855 164.34 373.355C164.34 385.015 159.58 388.095 141.24 388.095V388.115Z" fill="white"/>
<path d="M807.981 164.155C778.281 176.855 755.561 202.715 747.141 234.415C738.721 202.735 716.001 176.875 686.301 164.155C716.001 151.455 738.721 125.595 747.141 93.895C755.561 125.575 778.281 151.435 807.981 164.155Z" fill="#44CF6C"/>
<path d="M767.981 164.155C738.281 176.855 755.561 202.715 747.141 234.415C738.721 202.735 716.001 176.875 686.301 164.155C716.001 151.455 738.721 125.595 747.141 93.895C755.561 125.575 738.281 151.435 767.981 164.155Z" fill="#11192C"/>
<path d="M783.981 164.155C754.281 176.855 755.561 202.715 747.141 234.415C738.721 202.735 740.001 176.875 710.301 164.155C740.001 151.455 738.721 125.595 747.141 93.895C755.561 125.575 754.281 151.435 783.981 164.155Z" fill="#007AFF"/>
</g>
<defs>
<clipPath id="clip0_70_1529">
<rect width="807.98" height="584.42" fill="white" transform="translate(0 0.89502)"/>
</clipPath>
</defs>
</svg>
