<svg width="1343" height="163" viewBox="0 0 1343 163" fill="none" xmlns="http://www.w3.org/2000/svg">
<g clip-path="url(#clip0_70_1420)">
<path d="M42.62 98.5352H97.88V160.935H140.5V2.09521H97.88V62.0952H42.62V2.09521H0V160.935H42.62V98.5352Z" fill="#11192C"/>
<path d="M274.84 6.37502C265.56 2.33502 254.6 0.89502 232.92 0.89502C212.68 0.89502 199.82 2.31502 191.24 5.17502C175.28 10.895 164.34 21.615 160.76 34.935C157.66 45.655 156.48 61.135 156.48 89.955C156.48 105.675 156.96 113.775 158.14 120.435C161.24 135.915 167.9 145.915 180.28 153.535C190.52 159.955 202.9 162.115 227.68 162.115C266.5 162.115 284.6 156.155 295.08 139.495C302.7 127.595 304.36 116.635 304.36 82.335C304.36 60.195 303.88 48.515 302.22 41.135C298.88 24.235 290.08 13.035 274.84 6.37502ZM257.7 114.015C254.12 123.055 248.66 125.455 231.26 125.455C202.2 125.455 200.3 122.835 200.3 83.535C200.3 59.955 201.02 52.095 203.64 46.855C207.46 39.235 213.16 37.335 231.74 37.335C248.88 37.335 254.6 39.475 257.94 47.095C260.32 52.815 260.8 57.815 260.8 79.715C260.8 101.615 260.08 107.815 257.7 114.015Z" fill="#11192C"/>
<path d="M517.518 98.1952H530.618L574.918 160.775H627.058L566.338 80.1152L622.538 2.09521H571.098L530.378 62.2752H517.518V2.09521H474.898V160.775H517.518V98.1952Z" fill="#11192C"/>
<path d="M753.558 80.5952V79.8752C760.458 78.9152 764.518 77.2552 769.998 73.2152C777.378 67.7352 779.998 59.6552 779.998 44.1952C779.998 13.5152 767.378 2.09521 732.378 2.09521H641.398V160.775H733.318C770.238 160.775 782.618 150.075 782.618 118.195C782.618 91.5552 775.478 82.5152 753.558 80.6152V80.5952ZM684.018 37.0552H723.078C734.978 37.0552 737.838 39.6752 737.838 50.3752C737.838 57.7552 736.178 62.2752 732.358 63.9352C730.772 64.8819 725.218 65.4352 715.698 65.5952H684.018V37.0552ZM717.138 125.795H684.038V94.8752H719.998C727.932 95.1952 732.458 95.5886 733.578 96.0552C738.578 97.9552 740.238 101.535 740.238 111.035C740.238 122.695 735.478 125.775 717.138 125.775V125.795Z" fill="#11192C"/>
<path d="M924.902 91.5352C932.762 85.3552 935.622 74.6352 935.622 51.5752C935.622 30.1552 931.802 18.9752 921.562 11.3752C912.282 4.23521 902.042 2.09521 879.182 2.09521H798.922V160.775H841.542V118.675H873.222C885.842 118.195 891.562 124.855 891.082 139.615V160.795H934.422V131.775C934.902 112.275 925.382 101.795 905.842 100.855V99.1952C917.042 96.3352 920.842 94.9152 924.902 91.5752V91.5352ZM875.362 82.7352H841.542V38.4952H873.222C888.942 38.4952 892.042 41.8352 892.042 57.5352C892.042 78.9552 889.422 82.7552 875.382 82.7552L875.362 82.7352Z" fill="#11192C"/>
<path d="M1299.66 1.91504L1287.28 63.115C1283 83.835 1279.18 104.075 1275.62 124.315H1274.2C1272.54 116.935 1271.1 110.035 1269.44 102.875C1268.24 96.675 1265.16 83.595 1260.4 63.115L1245.64 1.91504H1201.82L1186.58 63.115L1178.96 93.835L1175.38 109.075L1172.04 124.315H1170.38C1168.72 113.835 1167.04 103.835 1165.14 93.835L1159.42 63.115L1147.52 1.91504H1104.9L1138.96 160.755H1199.44L1211.34 110.975C1213.48 102.635 1215.38 94.535 1217.3 86.215C1217.54 85.495 1218.5 80.735 1219.92 73.595C1220.88 69.075 1222.06 63.595 1222.54 61.215H1224.2C1227.54 77.875 1230.86 94.555 1234.68 110.995L1245.64 160.775H1306.84L1342.28 1.91504H1299.66Z" fill="#11192C"/>
<path d="M455.838 119.235H321.238V160.695H455.838V119.235Z" fill="#11192C"/>
<path d="M317.738 51.4352C317.738 78.6552 339.878 100.775 367.078 100.775H455.978V60.2952H367.078C362.198 60.2952 358.218 56.3152 358.218 51.4352C358.218 46.5552 362.198 42.5752 367.078 42.5752H455.978V2.09521H367.078C339.878 2.09521 317.738 24.2352 317.738 51.4352Z" fill="#11192C"/>
<path d="M954.598 2.09521V5.67522V43.5352V60.9352H954.398V102.375H1089V60.9352H995.818V43.5352H1089.18V2.09521H954.598Z" fill="#11192C"/>
<path d="M1089.04 119.415H954.441V160.875H1089.04V119.415Z" fill="#11192C"/>
</g>
<defs>
<clipPath id="clip0_70_1420">
<rect width="1342.28" height="161.22" fill="white" transform="translate(0 0.89502)"/>
</clipPath>
</defs>
</svg>
