<svg width="720" height="337" viewBox="0 0 720 337" fill="none" xmlns="http://www.w3.org/2000/svg">
<g clip-path="url(#clip0_70_1306)">
<path d="M112.16 256.175V255.455C119.06 254.495 123.12 252.835 128.6 248.795C135.98 243.315 138.6 235.235 138.6 219.775C138.6 189.095 125.98 177.675 90.98 177.675H0V336.355H91.92C128.84 336.355 141.22 325.655 141.22 293.775C141.22 267.135 134.08 258.095 112.16 256.195V256.175ZM42.62 212.635H81.68C93.58 212.635 96.44 215.255 96.44 225.955C96.44 233.335 94.78 237.855 90.96 239.515C89.3733 240.462 83.82 241.015 74.3 241.175H42.62V212.635ZM75.74 301.375H42.64V270.455H78.6C86.5333 270.775 91.06 271.169 92.18 271.635C97.18 273.535 98.84 277.115 98.84 286.615C98.84 298.275 94.08 301.355 75.74 301.355V301.375Z" fill="white"/>
<path d="M283.48 267.115C291.34 260.935 294.2 250.215 294.2 227.155C294.2 205.735 290.38 194.555 280.14 186.955C270.86 179.815 260.62 177.675 237.76 177.675H157.5V336.355H200.12V294.255H231.8C244.42 293.775 250.14 300.435 249.66 315.195V336.375H293V307.355C293.48 287.855 283.96 277.375 264.42 276.435V274.775C275.62 271.915 279.42 270.495 283.48 267.155V267.115ZM233.96 258.315H200.14V214.075H231.82C247.54 214.075 250.64 217.415 250.64 233.115C250.64 254.535 248.02 258.335 233.98 258.335L233.96 258.315Z" fill="white"/>
<path d="M658.26 177.495L645.88 238.695C641.6 259.415 637.78 279.655 634.22 299.895H632.8C631.14 292.515 629.7 285.615 628.04 278.455C626.84 272.255 623.76 259.175 619 238.695L604.24 177.495H560.42L545.18 238.695L537.56 269.415L533.98 284.655L530.64 299.895H528.98C527.32 289.415 525.64 279.415 523.74 269.415L518.02 238.695L506.12 177.495H463.5L497.56 336.335H558.04L569.94 286.555C572.08 278.215 573.98 270.115 575.9 261.795C576.14 261.075 577.1 256.315 578.52 249.175C579.48 244.655 580.66 239.175 581.14 236.795H582.8C586.14 253.455 589.46 270.135 593.28 286.575L604.24 336.355H665.44L700.92 177.515H658.3L658.26 177.495Z" fill="white"/>
<path d="M313.18 177.675V181.255V219.115V236.515H313V277.955H447.6V236.515H354.42V219.115H447.78V177.675H313.18Z" fill="white"/>
<path d="M447.639 294.995H313.039V336.455H447.639V294.995Z" fill="white"/>
<path d="M719.258 81.3953C689.558 94.0953 666.838 119.955 658.418 151.655C649.998 119.975 627.278 94.1153 597.578 81.3953C627.278 68.6953 649.998 42.8353 658.418 11.1353C666.838 42.8153 689.558 68.6753 719.258 81.3953Z" fill="white"/>
<path d="M42.62 98.5352H97.88V160.935H140.5V2.09521H97.88V62.0952H42.62V2.09521H0V160.935H42.62V98.5352Z" fill="white"/>
<path d="M270.282 6.37502C261.002 2.33502 250.042 0.89502 228.362 0.89502C208.122 0.89502 195.262 2.31502 186.682 5.17502C170.722 10.895 159.782 21.615 156.202 34.935C153.102 45.655 151.922 61.135 151.922 89.955C151.922 105.675 152.402 113.775 153.582 120.435C156.682 135.915 163.342 145.915 175.722 153.535C185.962 159.955 198.342 162.115 223.122 162.115C261.942 162.115 280.042 156.155 290.522 139.495C298.142 127.595 299.802 116.635 299.802 82.335C299.802 60.195 299.322 48.515 297.662 41.135C294.322 24.235 285.522 13.035 270.282 6.37502ZM253.122 114.015C249.542 123.055 244.082 125.455 226.682 125.455C197.622 125.455 195.722 122.835 195.722 83.535C195.722 59.955 196.442 52.095 199.062 46.855C202.882 39.235 208.582 37.335 227.162 37.335C244.302 37.335 250.022 39.475 253.362 47.095C255.742 52.815 256.222 57.815 256.222 79.715C256.222 101.615 255.502 107.815 253.122 114.015Z" fill="white"/>
<path d="M506.081 98.1952H519.181L563.481 160.775H615.621L554.901 80.1152L611.101 2.09521H559.661L518.941 62.2752H506.081V2.09521H463.461V160.775H506.081V98.1952Z" fill="white"/>
<path d="M446.42 119.235H311.82V160.695H446.42V119.235Z" fill="white"/>
<path d="M308.34 51.4352C308.34 78.6552 330.48 100.775 357.68 100.775H446.58V60.2952H357.68C352.8 60.2952 348.82 56.3152 348.82 51.4352C348.82 46.5552 352.8 42.5752 357.68 42.5752H446.58V2.09521H357.68C330.48 2.09521 308.34 24.2352 308.34 51.4352Z" fill="white"/>
</g>
<defs>
<clipPath id="clip0_70_1306">
<rect width="720" height="336" fill="white" transform="translate(0 0.89502)"/>
</clipPath>
</defs>
</svg>
