<svg width="700" height="337" viewBox="0 0 700 337" fill="none" xmlns="http://www.w3.org/2000/svg">
<g clip-path="url(#clip0_70_1409)">
<path d="M42.62 98.5352H97.88V160.935H140.5V2.09521H97.88V62.0952H42.62V2.09521H0V160.935H42.62V98.5352Z" fill="black"/>
<path d="M270.28 6.37502C261 2.33502 250.04 0.89502 228.36 0.89502C208.12 0.89502 195.26 2.31502 186.68 5.17502C170.72 10.895 159.78 21.615 156.2 34.935C153.1 45.655 151.92 61.135 151.92 89.955C151.92 105.675 152.4 113.775 153.58 120.435C156.68 135.915 163.34 145.915 175.72 153.535C185.96 159.955 198.34 162.115 223.12 162.115C261.94 162.115 280.04 156.155 290.52 139.495C298.14 127.595 299.8 116.635 299.8 82.335C299.8 60.195 299.32 48.515 297.66 41.135C294.32 24.235 285.52 13.035 270.28 6.37502ZM253.12 114.015C249.54 123.055 244.08 125.455 226.68 125.455C197.62 125.455 195.72 122.835 195.72 83.535C195.72 59.955 196.44 52.095 199.06 46.855C202.88 39.235 208.58 37.335 227.16 37.335C244.3 37.335 250.02 39.475 253.36 47.095C255.74 52.815 256.22 57.815 256.22 79.715C256.22 101.615 255.5 107.815 253.12 114.015Z" fill="black"/>
<path d="M506.081 98.1952H519.181L563.481 160.775H615.621L554.901 80.1152L611.101 2.09521H559.661L518.941 62.2752H506.081V2.09521H463.461V160.775H506.081V98.1952Z" fill="black"/>
<path d="M446.42 119.235H311.82V160.695H446.42V119.235Z" fill="black"/>
<path d="M308.34 51.4352C308.34 78.6552 330.48 100.775 357.68 100.775H446.58V60.2952H357.68C352.8 60.2952 348.82 56.3152 348.82 51.4352C348.82 46.5552 352.8 42.5752 357.68 42.5752H446.58V2.09521H357.68C330.48 2.09521 308.34 24.2352 308.34 51.4352Z" fill="black"/>
<path d="M112.16 256.175V255.455C119.06 254.495 123.12 252.835 128.6 248.795C135.98 243.315 138.6 235.235 138.6 219.775C138.6 189.095 125.98 177.675 90.98 177.675H0V336.355H91.92C128.84 336.355 141.22 325.655 141.22 293.775C141.22 267.135 134.08 258.095 112.16 256.195V256.175ZM42.62 212.635H81.68C93.58 212.635 96.44 215.255 96.44 225.955C96.44 233.335 94.78 237.855 90.96 239.515C89.3733 240.462 83.82 241.015 74.3 241.175H42.62V212.635ZM75.74 301.375H42.64V270.455H78.6C86.5333 270.775 91.06 271.169 92.18 271.635C97.18 273.535 98.84 277.115 98.84 286.615C98.84 298.275 94.08 301.355 75.74 301.355V301.375Z" fill="black"/>
<path d="M283.48 267.115C291.34 260.935 294.2 250.215 294.2 227.155C294.2 205.735 290.38 194.555 280.14 186.955C270.86 179.815 260.62 177.675 237.76 177.675H157.5V336.355H200.12V294.255H231.8C244.42 293.775 250.14 300.435 249.66 315.195V336.375H293V307.355C293.48 287.855 283.96 277.375 264.42 276.435V274.775C275.62 271.915 279.42 270.495 283.48 267.155V267.115ZM233.96 258.315H200.14V214.075H231.82C247.54 214.075 250.64 217.415 250.64 233.115C250.64 254.535 248.02 258.335 233.98 258.335L233.96 258.315Z" fill="black"/>
<path d="M658.26 177.495L645.88 238.695C641.6 259.415 637.78 279.655 634.22 299.895H632.8C631.14 292.515 629.7 285.615 628.04 278.455C626.84 272.255 623.76 259.175 619 238.695L604.24 177.495H560.42L545.18 238.695L537.56 269.415L533.98 284.655L530.64 299.895H528.98C527.32 289.415 525.64 279.415 523.74 269.415L518.02 238.695L506.12 177.495H463.5L497.56 336.335H558.04L569.94 286.555C572.08 278.215 573.98 270.115 575.9 261.795C576.14 261.075 577.1 256.315 578.52 249.175C579.48 244.655 580.66 239.175 581.14 236.795H582.8C586.14 253.455 589.46 270.135 593.28 286.575L604.24 336.355H665.44L700.92 177.515H658.3L658.26 177.495Z" fill="black"/>
<path d="M313.18 177.675V181.255V219.115V236.515H313V277.955H447.6V236.515H354.42V219.115H447.78V177.675H313.18Z" fill="black"/>
<path d="M447.639 294.995H313.039V336.455H447.639V294.995Z" fill="black"/>
</g>
<defs>
<clipPath id="clip0_70_1409">
<rect width="700" height="336" fill="white" transform="translate(0 0.89502)"/>
</clipPath>
</defs>
</svg>
